<svg xmlns="http://www.w3.org/2000/svg" viewBox="0 0 100 100">
  <defs>
    <linearGradient id="grad" x1="0%" y1="0%" x2="100%" y2="100%">
      <stop offset="0%" style="stop-color:#fbbf24;stop-opacity:1" />
      <stop offset="100%" style="stop-color:#f97316;stop-opacity:1" />
    </linearGradient>
  </defs>
  <rect width="100" height="100" rx="20" fill="#0F172A"/>
  
  <!-- Speed lines -->
  <g opacity="0.4">
    <rect x="10" y="35" width="18" height="3" rx="1.5" fill="#f97316"/>
    <rect x="14" y="42" width="14" height="3" rx="1.5" fill="#f97316"/>
    <rect x="8" y="49" width="20" height="3" rx="1.5" fill="#f97316"/>
    <rect x="12" y="56" width="16" height="3" rx="1.5" fill="#f97316"/>
    <rect x="10" y="63" width="18" height="3" rx="1.5" fill="#f97316"/>
  </g>
  
  <!-- Lightning bolt -->
  <path d="M58 18 L45 45 L58 45 L38 85 L68 50 L55 50 L72 18 Z" fill="url(#grad)"/>
  
  <!-- Highlight -->
  <path d="M60 25 L50 45 L60 45 L48 72" fill="none" stroke="#fff" stroke-width="3" stroke-linecap="round" opacity="0.3"/>
  
  <!-- Sparks -->
  <circle cx="78" cy="28" r="4" fill="url(#grad)" opacity="0.8"/>
  <circle cx="85" cy="38" r="2.5" fill="#f97316" opacity="0.6"/>
</svg>
